<?xml version="1.0" encoding="UTF-8" standalone="no"?>
<!-- Created with Inkscape (http://www.inkscape.org/) -->

<svg
   xmlns:dc="http://purl.org/dc/elements/1.1/"
   xmlns:cc="http://creativecommons.org/ns#"
   xmlns:rdf="http://www.w3.org/1999/02/22-rdf-syntax-ns#"
   xmlns:svg="http://www.w3.org/2000/svg"
   xmlns="http://www.w3.org/2000/svg"
   xmlns:sodipodi="http://sodipodi.sourceforge.net/DTD/sodipodi-0.dtd"
   xmlns:inkscape="http://www.inkscape.org/namespaces/inkscape"
   width="846.95251mm"
   height="154.08945mm"
   viewBox="0 0 3001.0128 545.98623"
   id="svg4152"
   version="1.1"
   inkscape:version="0.91 r13725"
   sodipodi:docname="logonuevo_magento3trazado.svg"
   inkscape:export-filename="X:\Papeleria\Logos\2017\relogos\logonuevo_magento4.png"
   inkscape:export-xdpi="90"
   inkscape:export-ydpi="90">
  <defs
     id="defs4154" />
  <sodipodi:namedview
     id="base"
     pagecolor="#ffffff"
     bordercolor="#666666"
     borderopacity="1.0"
     inkscape:pageopacity="0.0"
     inkscape:pageshadow="2"
     inkscape:zoom="0.35355339"
     inkscape:cx="764.16109"
     inkscape:cy="92.64912"
     inkscape:document-units="px"
     inkscape:current-layer="layer1"
     showgrid="false"
     fit-margin-top="0"
     fit-margin-left="0"
     fit-margin-right="0"
     fit-margin-bottom="0"
     inkscape:window-width="1920"
     inkscape:window-height="1017"
     inkscape:window-x="-8"
     inkscape:window-y="-8"
     inkscape:window-maximized="1" />
  <metadata
     id="metadata4157">
    <rdf:RDF>
      <cc:Work
         rdf:about="">
        <dc:format>image/svg+xml</dc:format>
        <dc:type
           rdf:resource="http://purl.org/dc/dcmitype/StillImage" />
        <dc:title></dc:title>
      </cc:Work>
    </rdf:RDF>
  </metadata>
  <g
     inkscape:label="Capa 1"
     inkscape:groupmode="layer"
     id="layer1"
     transform="translate(1051.935,-102.22623)">
    <path
       id="path4946"
       d="m -778.94165,102.22623 c -150.7686,0 -272.99335,122.22336 -272.99335,272.99311 0,150.76971 122.22475,272.99312 272.99335,272.99312 37.27963,0 72.80174,-7.49509 105.17862,-21.02038 -35.54341,-18.01305 -59.92748,-54.89127 -59.92748,-97.45866 0,-60.30855 48.88768,-109.1971 109.19706,-109.1971 42.58703,0 79.48525,24.39689 97.49171,59.95574 13.55143,-32.39658 21.05296,-67.9579 21.05296,-105.27272 0,-150.76975 -122.22428,-272.99311 -272.99287,-272.99311 z"
       style="color:#000000;display:inline;overflow:visible;visibility:visible;fill:#3bb80e;fill-opacity:1;fill-rule:nonzero;stroke:none;stroke-width:354.33071899;marker:none;enable-background:accumulate"
       inkscape:connector-curvature="0" />
    <path
       style="color:#000000;display:inline;overflow:visible;visibility:visible;fill:#b0b7b8;fill-opacity:1;fill-rule:nonzero;stroke:none;stroke-width:354.33071899;marker:none;enable-background:accumulate"
       d="m -569.87548,529.7475 a 54.598637,54.598637 0 0 1 -54.59864,54.59863 54.598637,54.598637 0 0 1 -54.59864,-54.59863 54.598637,54.598637 0 0 1 54.59864,-54.59864 54.598637,54.598637 0 0 1 54.59864,54.59864 z"
       id="circle4948" />
    <g
       transform="translate(-1051.935,102.22623)"
       style="font-style:normal;font-weight:normal;font-size:304.2449646px;line-height:125%;font-family:Sans;letter-spacing:0px;word-spacing:0px;fill:#000000;fill-opacity:1;stroke:none"
       id="flowRoot4950">
      <path
         d="m 885.68682,185.26992 -103.39575,0 0,68.33627 102.5044,0 0,21.39222 -102.5044,0 0,85.71745 102.5044,0 0,21.54079 -124.3423,0 0,-218.52752 125.23365,0 0,21.54079 z"
         style="font-style:normal;font-variant:normal;font-weight:bold;font-stretch:normal;line-height:80.00000119%;font-family:'Levenim MT';-inkscape-font-specification:'Levenim MT Bold';letter-spacing:-9.82775593px;word-spacing:-3.25878882px;fill:#b0b7b8;fill-opacity:1"
         id="path3352" />
      <path
         d="m 1019.8109,382.25665 -105.92122,0 0,-218.52752 21.98645,0 0,197.43241 83.93477,0 0,21.09511 z"
         style="font-style:normal;font-variant:normal;font-weight:bold;font-stretch:normal;line-height:80.00000119%;font-family:'Levenim MT';-inkscape-font-specification:'Levenim MT Bold';letter-spacing:-9.82775593px;word-spacing:-3.25878882px;fill:#b0b7b8;fill-opacity:1"
         id="path3354" />
      <path
         d="m 1170.2763,185.26992 -103.3958,0 0,68.33627 102.5044,0 0,21.39222 -102.5044,0 0,85.71745 102.5044,0 0,21.54079 -124.3423,0 0,-218.52752 125.2337,0 0,21.54079 z"
         style="font-style:normal;font-variant:normal;font-weight:bold;font-stretch:normal;line-height:80.00000119%;font-family:'Levenim MT';-inkscape-font-specification:'Levenim MT Bold';letter-spacing:-9.82775593px;word-spacing:-3.25878882px;fill:#b0b7b8;fill-opacity:1"
         id="path3356" />
      <path
         d="m 1402.0024,344.22602 q -34.1681,43.52724 -95.3737,43.52724 -57.4916,0 -90.4713,-38.17918 -27.7801,-32.08834 -27.7801,-77.84393 0,-49.46951 34.4652,-81.85496 33.7225,-31.64267 83.4891,-31.64267 62.394,0 95.6708,46.05271 l -17.2326,13.22158 q -28.9687,-37.73351 -78.1411,-37.73351 -25.5518,0 -47.6868,12.18169 -22.7293,12.33024 -35.208,33.87102 -12.3303,21.39222 -12.3303,47.83539 0,41.00176 27.9287,67.44493 27.4831,25.99749 68.6334,25.99749 45.9042,0 76.8041,-35.95082 l 17.2326,13.07302 z"
         style="font-style:normal;font-variant:normal;font-weight:bold;font-stretch:normal;line-height:80.00000119%;font-family:'Levenim MT';-inkscape-font-specification:'Levenim MT Bold';letter-spacing:-9.82775593px;word-spacing:-3.25878882px;fill:#b0b7b8;fill-opacity:1"
         id="path3358" />
      <path
         d="m 1534.0466,184.9728 -48.7267,0 0,197.28385 -22.2836,0 0,-197.28385 -48.8752,0 0,-21.24367 119.8855,0 0,21.24367 z"
         style="font-style:normal;font-variant:normal;font-weight:bold;font-stretch:normal;line-height:80.00000119%;font-family:'Levenim MT';-inkscape-font-specification:'Levenim MT Bold';letter-spacing:-9.82775593px;word-spacing:-3.25878882px;fill:#b0b7b8;fill-opacity:1"
         id="path3360" />
      <path
         d="m 1696.5451,382.25665 -27.0374,0 -78.4381,-101.61307 -12.4788,0 0,101.61307 -21.8379,0 0,-218.52752 43.5272,0 q 36.3965,0 49.321,2.97115 20.2038,4.60527 31.9398,19.46098 11.8845,14.85571 11.8845,35.6537 0,37.4364 -32.3854,51.69788 -15.5985,6.98218 -43.0816,7.13074 l 78.5867,101.61307 z m -25.8489,-160.44169 q 0,-10.84466 -5.7937,-19.75809 -5.7938,-9.06198 -15.5985,-12.92447 -9.8048,-4.01104 -32.2369,-4.01104 l -38.4763,0 0,74.27855 37.5849,0.29712 q 37.2879,0.29711 48.7268,-17.52974 5.7937,-9.06198 5.7937,-20.35233 z"
         style="font-style:normal;font-variant:normal;font-weight:bold;font-stretch:normal;line-height:80.00000119%;font-family:'Levenim MT';-inkscape-font-specification:'Levenim MT Bold';letter-spacing:-9.82775593px;word-spacing:-3.25878882px;fill:#b0b7b8;fill-opacity:1"
         id="path3362" />
      <path
         d="m 1951.149,272.91861 q 0,48.28106 -33.2767,81.55786 -33.1283,33.27679 -81.4093,33.27679 -48.2811,0 -81.855,-32.83112 -33.5739,-32.83112 -33.5739,-80.96363 0,-31.19699 15.0042,-58.08583 15.0043,-26.88884 41.7446,-42.48733 26.2946,-15.15283 56.8974,-15.15283 49.3209,0 82.7463,32.53401 33.7224,32.97968 33.7224,82.15208 z m -22.5806,0 q 0,-54.07479 -46.2013,-80.66651 -21.9864,-12.62735 -46.6469,-12.62735 -24.512,0 -46.0527,12.62735 -21.5408,12.62735 -33.7225,34.01958 -12.1817,21.39222 -12.1817,47.68683 0,38.77341 26.5917,65.66224 26.5918,26.88884 65.3652,26.88884 25.2547,0 46.7955,-12.18168 21.6893,-12.18168 33.871,-33.72247 12.1817,-21.54078 12.1817,-47.68683 z"
         style="font-style:normal;font-variant:normal;font-weight:bold;font-stretch:normal;line-height:80.00000119%;font-family:'Levenim MT';-inkscape-font-specification:'Levenim MT Bold';letter-spacing:-9.82775593px;word-spacing:-3.25878882px;fill:#b0b7b8;fill-opacity:1"
         id="path3364" />
      <path
         d="m 2121.5211,221.96352 q 0,44.71569 -43.5272,55.11469 -14.8557,3.56537 -55.5604,3.56537 l -15.5985,0 0,101.61307 -21.8379,0 0,-218.52752 43.5273,0 q 37.2878,0 50.5094,3.26826 19.9066,4.90239 31.197,19.60954 11.2903,14.70715 11.2903,35.35659 z m -22.5807,0 q 0,-10.84467 -5.9423,-19.90665 -5.7937,-9.21054 -15.5985,-13.07303 -9.8047,-4.01104 -31.9397,-4.01104 l -38.6249,0 0,74.27856 36.9907,0.44567 q 37.585,0.44567 49.1724,-17.38118 5.9423,-9.06199 5.9423,-20.35233 z"
         style="letter-spacing:-9.82775593px;fill:#b0b7b8;fill-opacity:1"
         id="path3366" />
      <path
         d="m 2296.3499,382.25665 -27.0374,0 -78.4382,-101.61307 -12.4788,0 0,101.61307 -21.8379,0 0,-218.52752 43.5273,0 q 36.3965,0 49.3209,2.97115 20.2038,4.60527 31.9398,19.46098 11.8846,14.85571 11.8846,35.6537 0,37.4364 -32.3855,51.69788 -15.5985,6.98218 -43.0815,7.13074 l 78.5867,101.61307 z M 2270.501,221.81496 q 0,-10.84466 -5.7938,-19.75809 -5.7937,-9.06198 -15.5985,-12.92447 -9.8047,-4.01104 -32.2369,-4.01104 l -38.4763,0 0,74.27855 37.585,0.29712 q 37.2878,0.29711 48.7267,-17.52974 5.7938,-9.06198 5.7938,-20.35233 z"
         style="letter-spacing:-9.82775593px;fill:#b0b7b8;fill-opacity:1"
         id="path3368" />
      <path
         d="m 2455.7287,185.26992 -103.3958,0 0,68.33627 102.5044,0 0,21.39222 -102.5044,0 0,85.71745 102.5044,0 0,21.54079 -124.3423,0 0,-218.52752 125.2337,0 0,21.54079 z"
         style="letter-spacing:-9.82775593px;fill:#b0b7b8;fill-opacity:1"
         id="path3370" />
      <path
         d="m 2687.4547,344.22602 q -34.1681,43.52724 -95.3737,43.52724 -57.4916,0 -90.4713,-38.17918 -27.7801,-32.08834 -27.7801,-77.84393 0,-49.46951 34.4652,-81.85496 33.7225,-31.64267 83.4891,-31.64267 62.394,0 95.6708,46.05271 l -17.2326,13.22158 q -28.9687,-37.73351 -78.1411,-37.73351 -25.5518,0 -47.6868,12.18169 -22.7292,12.33024 -35.208,33.87102 -12.3303,21.39222 -12.3303,47.83539 0,41.00176 27.9288,67.44493 27.483,25.99749 68.6333,25.99749 45.9042,0 76.8041,-35.95082 l 17.2326,13.07302 z"
         style="letter-spacing:-9.82775593px;fill:#b0b7b8;fill-opacity:1"
         id="path3372" />
      <path
         d="m 2740.021,382.25665 -21.8379,0 0,-218.52752 21.8379,0 0,218.52752 z"
         style="letter-spacing:-9.82775593px;fill:#b0b7b8;fill-opacity:1"
         id="path3374" />
      <path
         d="m 3001.0129,272.91861 q 0,48.28106 -33.2768,81.55786 -33.1283,33.27679 -81.4093,33.27679 -48.2811,0 -81.855,-32.83112 -33.5739,-32.83112 -33.5739,-80.96363 0,-31.19699 15.0043,-58.08583 15.0042,-26.88884 41.7445,-42.48733 26.2946,-15.15283 56.8974,-15.15283 49.321,0 82.7463,32.53401 33.7225,32.97968 33.7225,82.15208 z m -22.5807,0 q 0,-54.07479 -46.2013,-80.66651 -21.9864,-12.62735 -46.6469,-12.62735 -24.5119,0 -46.0527,12.62735 -21.5408,12.62735 -33.7225,34.01958 -12.1817,21.39222 -12.1817,47.68683 0,38.77341 26.5918,65.66224 26.5917,26.88884 65.3651,26.88884 25.2547,0 46.7955,-12.18168 21.6893,-12.18168 33.871,-33.72247 12.1817,-21.54078 12.1817,-47.68683 z"
         style="letter-spacing:-9.82775593px;fill:#b0b7b8;fill-opacity:1"
         id="path3376" />
    </g>
  </g>
</svg>
